<?xml version="1.0" encoding="utf-8"?>
<!-- Generator: Adobe Illustrator 27.7.0, SVG Export Plug-In . SVG Version: 6.00 Build 0)  -->
<svg version="1.1" id="Layer_1" xmlns="http://www.w3.org/2000/svg" xmlns:xlink="http://www.w3.org/1999/xlink" x="0px" y="0px"
	 viewBox="0 0 250 250" style="enable-background:new 0 0 250 250;" xml:space="preserve">
<style type="text/css">
	.st0{fill:#FFFFFF;}
	.st1{fill:#21A038;}
	.st2{fill:url(#SVGID_1_);}
	.st3{fill:url(#SVGID_00000037666766613893577180000007404719007880882352_);}
	.st4{fill:url(#SVGID_00000173842949936374045700000001169694619957870238_);}
	.st5{fill:url(#SVGID_00000010291078794263227040000015720262457446613895_);}
	.st6{fill:url(#SVGID_00000012453536126314635770000009395644642918577042_);}
	.st7{fill:url(#SVGID_00000087402595432990485710000017597316103838403215_);}
</style>
<circle class="st0" cx="125" cy="125" r="115"/>
<g>
	<path class="st1" d="M203.5,64c4.7,6.1,8.6,12.8,11.9,19.9l-90.3,67.2l-37.9-24V98.3l37.7,23.8L203.5,64z"/>
	
		<linearGradient id="SVGID_1_" gradientUnits="userSpaceOnUse" x1="58.7942" y1="60.3406" x2="35.4338" y2="128.3833" gradientTransform="matrix(1 0 0 -1 0 251)">
		<stop  offset="0.1444" style="stop-color:#F2E913"/>
		<stop  offset="0.3037" style="stop-color:#E7E518"/>
		<stop  offset="0.5823" style="stop-color:#CADB26"/>
		<stop  offset="0.891" style="stop-color:#A3CD39"/>
	</linearGradient>
	<path class="st2" d="M48.6,125.1c0-1.4,0-2.6,0.2-3.9L26,120c0,1.6-0.2,3.3-0.2,4.9c0,27.6,11.1,52.6,29.1,70.7l16.2-16.4
		C57.2,165.5,48.6,146.4,48.6,125.1z"/>
	
		<linearGradient id="SVGID_00000116937304287140194810000008522949454136335785_" gradientUnits="userSpaceOnUse" x1="63.6535" y1="193.2238" x2="122.9594" y2="215.9974" gradientTransform="matrix(1 0 0 -1 0 251)">
		<stop  offset="5.920000e-02" style="stop-color:#0FA8E0"/>
		<stop  offset="0.5385" style="stop-color:#0099F9"/>
		<stop  offset="0.9234" style="stop-color:#0291EB"/>
	</linearGradient>
	<path style="fill:url(#SVGID_00000116937304287140194810000008522949454136335785_);" d="M124.9,48.3c1.4,0,2.5,0,3.9,0.2l1.2-23.1
		c-1.6,0-3.3-0.2-4.9-0.2c-27.4,0-52.2,11.2-70.2,29.4l16.2,16.4C84.8,56.9,104,48.3,124.9,48.3z"/>
	
		<linearGradient id="SVGID_00000031924408932161350090000010474093277293022132_" gradientUnits="userSpaceOnUse" x1="119.6828" y1="40.3006" x2="190.3843" y2="56.4017" gradientTransform="matrix(1 0 0 -1 0 251)">
		<stop  offset="0.1226" style="stop-color:#A3CD39"/>
		<stop  offset="0.2846" style="stop-color:#86C339"/>
		<stop  offset="0.8693" style="stop-color:#21A038"/>
	</linearGradient>
	<path style="fill:url(#SVGID_00000031924408932161350090000010474093277293022132_);" d="M124.9,201.9c-1.4,0-2.5,0-3.9-0.2
		l-1.2,23.1c1.6,0,3.3,0.2,4.9,0.2c27.4,0,52.2-11.2,70.2-29.4l-16.2-16.4C165,193.5,146,201.9,124.9,201.9z"/>
	
		<linearGradient id="SVGID_00000103222650474690715410000005192832430596295308_" gradientUnits="userSpaceOnUse" x1="122.1364" y1="217.5403" x2="180.9197" y2="199.2638" gradientTransform="matrix(1 0 0 -1 0 251)">
		<stop  offset="5.660000e-02" style="stop-color:#0291EB"/>
		<stop  offset="0.79" style="stop-color:#0C8ACB"/>
	</linearGradient>
	<path style="fill:url(#SVGID_00000103222650474690715410000005192832430596295308_);" d="M167.9,61.7l19.4-14.4
		c-17-13.8-38.7-22.3-62.4-22.3v23.1C140.9,48.3,155.8,53.2,167.9,61.7z"/>
	<path class="st1" d="M224.2,125.1c0-6.1-0.6-12-1.6-17.9l-21.3,16c0,0.6,0,1.4,0,2c0,22.7-9.8,43-25.2,56.9l15.4,17.1
		C211.5,181.1,224.2,154.5,224.2,125.1z"/>
	
		<linearGradient id="SVGID_00000157309341308776996060000018273542658096930469_" gradientUnits="userSpaceOnUse" x1="59.3187" y1="60.8965" x2="122.4585" y2="37.124" gradientTransform="matrix(1 0 0 -1 0 251)">
		<stop  offset="0.1324" style="stop-color:#F2E913"/>
		<stop  offset="0.2977" style="stop-color:#EBE716"/>
		<stop  offset="0.5306" style="stop-color:#D9E01F"/>
		<stop  offset="0.8023" style="stop-color:#BBD62D"/>
		<stop  offset="0.9829" style="stop-color:#A3CD39"/>
	</linearGradient>
	<path style="fill:url(#SVGID_00000157309341308776996060000018273542658096930469_);" d="M124.9,201.9c-22.5,0-42.6-9.9-56.5-25.4
		l-17,15.6c18.2,20.3,44.4,32.9,73.5,32.9V201.9z"/>
	
		<linearGradient id="SVGID_00000065068531905804582870000011348462109761787528_" gradientUnits="userSpaceOnUse" x1="35.469" y1="126.1003" x2="60.7239" y2="192.301" gradientTransform="matrix(1 0 0 -1 0 251)">
		<stop  offset="6.980000e-02" style="stop-color:#A3CD39"/>
		<stop  offset="0.2599" style="stop-color:#81C55F"/>
		<stop  offset="0.9216" style="stop-color:#0FA8E0"/>
	</linearGradient>
	<path style="fill:url(#SVGID_00000065068531905804582870000011348462109761787528_);" d="M73.9,68.2L58.4,51
		c-20.1,18.3-32.7,44.7-32.7,74.1h22.9C48.6,102.6,58.4,82.1,73.9,68.2z"/>
</g>
<path d="M217.4,184c0,10.2-8.2,18.4-18.4,18.4c-10.2,0-18.4-8.2-18.4-18.4s8.2-18.4,18.4-18.4V143c-22.6,0-41,18.4-41,41h-6.6h-2
	H131l13,13c-3.3,3.3-7.9,5.4-13,5.4c-10.2,0-18.4-8.2-18.4-18.4s8.2-18.4,18.4-18.4c5.1,0,9.7,2.1,13,5.4l16-16
	c-7.4-7.4-17.7-12-29-12c-22.6,0-41,18.4-41,41s18.4,41,41,41c14.2,0,26.6-7.2,34-18.1c7.4,10.9,19.9,18.1,34,18.1
	c22.6,0,41-18.4,41-41H217.4z"/>
</svg>
